<svg width="96" height="17" viewBox="0 0 96 17" fill="none" xmlns="http://www.w3.org/2000/svg">
<path d="M7.6385 0.954519C7.93759 0.348494 8.80176 0.348493 9.10085 0.954518L11.0556 4.91518C11.1743 5.15583 11.4039 5.32263 11.6695 5.36123L16.0403 5.99635C16.7091 6.09353 16.9762 6.9154 16.4922 7.38713L13.3294 10.4701C13.1373 10.6574 13.0496 10.9273 13.0949 11.1918L13.8416 15.545C13.9558 16.2111 13.2567 16.719 12.6585 16.4045L8.7491 14.3492C8.51157 14.2243 8.22779 14.2243 7.99025 14.3492L4.08084 16.4045C3.48266 16.719 2.78353 16.2111 2.89777 15.545L3.6444 11.1918C3.68977 10.9273 3.60207 10.6574 3.4099 10.4701L0.247125 7.38713C-0.236814 6.9154 0.0302287 6.09353 0.699016 5.99635L5.06987 5.36123C5.33544 5.32263 5.56502 5.15583 5.68379 4.91518L7.6385 0.954519ZM27.2075 0.954519C27.5066 0.348494 28.3708 0.348493 28.6699 0.954518L30.6246 4.91518C30.7433 5.15583 30.9729 5.32263 31.2385 5.36123L35.6093 5.99635C36.2781 6.09353 36.5452 6.9154 36.0612 7.38713L32.8985 10.4701C32.7063 10.6574 32.6186 10.9273 32.664 11.1918L33.4106 15.545C33.5248 16.2111 32.8257 16.719 32.2275 16.4045L28.3181 14.3492C28.0806 14.2243 27.7968 14.2243 27.5593 14.3492L23.6499 16.4045C23.0517 16.719 22.3525 16.2111 22.4668 15.545L23.2134 11.1918C23.2588 10.9273 23.1711 10.6574 22.9789 10.4701L19.8161 7.38713C19.3322 6.9154 19.5992 6.09353 20.268 5.99635L24.6389 5.36123C24.9045 5.32263 25.134 5.15583 25.2528 4.91518L27.2075 0.954519ZM46.7765 0.954519C47.0756 0.348494 47.9398 0.348493 48.2389 0.954518L50.1936 4.91518C50.3124 5.15583 50.5419 5.32263 50.8075 5.36123L55.1784 5.99635C55.8471 6.09353 56.1142 6.9154 55.6303 7.38713L52.4675 10.4701C52.2753 10.6574 52.1876 10.9273 52.233 11.1918L52.9796 15.545C53.0939 16.2111 52.3947 16.719 51.7965 16.4045L47.8871 14.3492C47.6496 14.2243 47.3658 14.2243 47.1283 14.3492L43.2189 16.4045C42.6207 16.719 41.9216 16.2111 42.0358 15.545L42.7824 11.1918C42.8278 10.9273 42.7401 10.6574 42.5479 10.4701L39.3852 7.38713C38.9012 6.9154 39.1683 6.09353 39.837 5.99635L44.2079 5.36123C44.4735 5.32263 44.7031 5.15583 44.8218 4.91518L46.7765 0.954519ZM66.3456 0.954519C66.6446 0.348494 67.5088 0.348493 67.8079 0.954518L69.7626 4.91518C69.8814 5.15583 70.111 5.32263 70.3765 5.36123L74.7474 5.99635C75.4162 6.09353 75.6832 6.9154 75.1993 7.38713L72.0365 10.4701C71.8443 10.6574 71.7566 10.9273 71.802 11.1918L72.5486 15.545C72.6629 16.2111 71.9637 16.719 71.3656 16.4045L67.4562 14.3492C67.2186 14.2243 66.9348 14.2243 66.6973 14.3492L62.7879 16.4045C62.1897 16.719 61.4906 16.2111 61.6048 15.545L62.3515 11.1918C62.3968 10.9273 62.3091 10.6574 62.117 10.4701L58.9542 7.38713C58.4702 6.9154 58.7373 6.09353 59.4061 5.99635L63.7769 5.36123C64.0425 5.32263 64.2721 5.15583 64.3908 4.91518L66.3456 0.954519ZM85.9146 0.954519C86.2137 0.348494 87.0778 0.348493 87.3769 0.954518L89.3316 4.91518C89.4504 5.15583 89.68 5.32263 89.9455 5.36123L94.3164 5.99635C94.9852 6.09353 95.2522 6.9154 94.7683 7.38713L91.6055 10.4701C91.4133 10.6574 91.3257 10.9273 91.371 11.1918L92.1176 15.545C92.2319 16.2111 91.5328 16.719 90.9346 16.4045L87.0252 14.3492C86.7876 14.2243 86.5039 14.2243 86.2663 14.3492L82.3569 16.4045C81.7587 16.719 81.0596 16.2111 81.1738 15.545L81.9205 11.1918C81.9658 10.9273 81.8781 10.6574 81.686 10.4701L78.5232 7.38713C78.0392 6.9154 78.3063 6.09353 78.9751 5.99635L83.3459 5.36123C83.6115 5.32263 83.8411 5.15583 83.9599 4.91518L85.9146 0.954519Z" fill="#FFC700"/>
<path d="M7.6385 0.954519C7.93759 0.348494 8.80176 0.348493 9.10085 0.954518L11.0556 4.91518C11.1743 5.15583 11.4039 5.32263 11.6695 5.36123L16.0403 5.99635C16.7091 6.09353 16.9762 6.9154 16.4922 7.38713L13.3294 10.4701C13.1373 10.6574 13.0496 10.9273 13.0949 11.1918L13.8416 15.545C13.9558 16.2111 13.2567 16.719 12.6585 16.4045L8.7491 14.3492C8.51157 14.2243 8.22779 14.2243 7.99025 14.3492L4.08084 16.4045C3.48266 16.719 2.78353 16.2111 2.89777 15.545L3.6444 11.1918C3.68977 10.9273 3.60207 10.6574 3.4099 10.4701L0.247125 7.38713C-0.236814 6.9154 0.0302287 6.09353 0.699016 5.99635L5.06987 5.36123C5.33544 5.32263 5.56502 5.15583 5.68379 4.91518L7.6385 0.954519ZM27.2075 0.954519C27.5066 0.348494 28.3708 0.348493 28.6699 0.954518L30.6246 4.91518C30.7433 5.15583 30.9729 5.32263 31.2385 5.36123L35.6093 5.99635C36.2781 6.09353 36.5452 6.9154 36.0612 7.38713L32.8985 10.4701C32.7063 10.6574 32.6186 10.9273 32.664 11.1918L33.4106 15.545C33.5248 16.2111 32.8257 16.719 32.2275 16.4045L28.3181 14.3492C28.0806 14.2243 27.7968 14.2243 27.5593 14.3492L23.6499 16.4045C23.0517 16.719 22.3525 16.2111 22.4668 15.545L23.2134 11.1918C23.2588 10.9273 23.1711 10.6574 22.9789 10.4701L19.8161 7.38713C19.3322 6.9154 19.5992 6.09353 20.268 5.99635L24.6389 5.36123C24.9045 5.32263 25.134 5.15583 25.2528 4.91518L27.2075 0.954519ZM46.7765 0.954519C47.0756 0.348494 47.9398 0.348493 48.2389 0.954518L50.1936 4.91518C50.3124 5.15583 50.5419 5.32263 50.8075 5.36123L55.1784 5.99635C55.8471 6.09353 56.1142 6.9154 55.6303 7.38713L52.4675 10.4701C52.2753 10.6574 52.1876 10.9273 52.233 11.1918L52.9796 15.545C53.0939 16.2111 52.3947 16.719 51.7965 16.4045L47.8871 14.3492C47.6496 14.2243 47.3658 14.2243 47.1283 14.3492L43.2189 16.4045C42.6207 16.719 41.9216 16.2111 42.0358 15.545L42.7824 11.1918C42.8278 10.9273 42.7401 10.6574 42.5479 10.4701L39.3852 7.38713C38.9012 6.9154 39.1683 6.09353 39.837 5.99635L44.2079 5.36123C44.4735 5.32263 44.7031 5.15583 44.8218 4.91518L46.7765 0.954519ZM66.3456 0.954519C66.6446 0.348494 67.5088 0.348493 67.8079 0.954518L69.7626 4.91518C69.8814 5.15583 70.111 5.32263 70.3765 5.36123L74.7474 5.99635C75.4162 6.09353 75.6832 6.9154 75.1993 7.38713L72.0365 10.4701C71.8443 10.6574 71.7566 10.9273 71.802 11.1918L72.5486 15.545C72.6629 16.2111 71.9637 16.719 71.3656 16.4045L67.4562 14.3492C67.2186 14.2243 66.9348 14.2243 66.6973 14.3492L62.7879 16.4045C62.1897 16.719 61.4906 16.2111 61.6048 15.545L62.3515 11.1918C62.3968 10.9273 62.3091 10.6574 62.117 10.4701L58.9542 7.38713C58.4702 6.9154 58.7373 6.09353 59.4061 5.99635L63.7769 5.36123C64.0425 5.32263 64.2721 5.15583 64.3908 4.91518L66.3456 0.954519ZM85.9146 0.954519C86.2137 0.348494 87.0778 0.348493 87.3769 0.954518L89.3316 4.91518C89.4504 5.15583 89.68 5.32263 89.9455 5.36123L94.3164 5.99635C94.9852 6.09353 95.2522 6.9154 94.7683 7.38713L91.6055 10.4701C91.4133 10.6574 91.3257 10.9273 91.371 11.1918L92.1176 15.545C92.2319 16.2111 91.5328 16.719 90.9346 16.4045L87.0252 14.3492C86.7876 14.2243 86.5039 14.2243 86.2663 14.3492L82.3569 16.4045C81.7587 16.719 81.0596 16.2111 81.1738 15.545L81.9205 11.1918C81.9658 10.9273 81.8781 10.6574 81.686 10.4701L78.5232 7.38713C78.0392 6.9154 78.3063 6.09353 78.9751 5.99635L83.3459 5.36123C83.6115 5.32263 83.8411 5.15583 83.9599 4.91518L85.9146 0.954519Z" fill="#FFC700"/>
<path d="M7.6385 0.954519C7.93759 0.348494 8.80176 0.348493 9.10085 0.954518L11.0556 4.91518C11.1743 5.15583 11.4039 5.32263 11.6695 5.36123L16.0403 5.99635C16.7091 6.09353 16.9762 6.9154 16.4922 7.38713L13.3294 10.4701C13.1373 10.6574 13.0496 10.9273 13.0949 11.1918L13.8416 15.545C13.9558 16.2111 13.2567 16.719 12.6585 16.4045L8.7491 14.3492C8.51157 14.2243 8.22779 14.2243 7.99025 14.3492L4.08084 16.4045C3.48266 16.719 2.78353 16.2111 2.89777 15.545L3.6444 11.1918C3.68977 10.9273 3.60207 10.6574 3.4099 10.4701L0.247125 7.38713C-0.236814 6.9154 0.0302287 6.09353 0.699016 5.99635L5.06987 5.36123C5.33544 5.32263 5.56502 5.15583 5.68379 4.91518L7.6385 0.954519ZM27.2075 0.954519C27.5066 0.348494 28.3708 0.348493 28.6699 0.954518L30.6246 4.91518C30.7433 5.15583 30.9729 5.32263 31.2385 5.36123L35.6093 5.99635C36.2781 6.09353 36.5452 6.9154 36.0612 7.38713L32.8985 10.4701C32.7063 10.6574 32.6186 10.9273 32.664 11.1918L33.4106 15.545C33.5248 16.2111 32.8257 16.719 32.2275 16.4045L28.3181 14.3492C28.0806 14.2243 27.7968 14.2243 27.5593 14.3492L23.6499 16.4045C23.0517 16.719 22.3525 16.2111 22.4668 15.545L23.2134 11.1918C23.2588 10.9273 23.1711 10.6574 22.9789 10.4701L19.8161 7.38713C19.3322 6.9154 19.5992 6.09353 20.268 5.99635L24.6389 5.36123C24.9045 5.32263 25.134 5.15583 25.2528 4.91518L27.2075 0.954519ZM46.7765 0.954519C47.0756 0.348494 47.9398 0.348493 48.2389 0.954518L50.1936 4.91518C50.3124 5.15583 50.5419 5.32263 50.8075 5.36123L55.1784 5.99635C55.8471 6.09353 56.1142 6.9154 55.6303 7.38713L52.4675 10.4701C52.2753 10.6574 52.1876 10.9273 52.233 11.1918L52.9796 15.545C53.0939 16.2111 52.3947 16.719 51.7965 16.4045L47.8871 14.3492C47.6496 14.2243 47.3658 14.2243 47.1283 14.3492L43.2189 16.4045C42.6207 16.719 41.9216 16.2111 42.0358 15.545L42.7824 11.1918C42.8278 10.9273 42.7401 10.6574 42.5479 10.4701L39.3852 7.38713C38.9012 6.9154 39.1683 6.09353 39.837 5.99635L44.2079 5.36123C44.4735 5.32263 44.7031 5.15583 44.8218 4.91518L46.7765 0.954519ZM66.3456 0.954519C66.6446 0.348494 67.5088 0.348493 67.8079 0.954518L69.7626 4.91518C69.8814 5.15583 70.111 5.32263 70.3765 5.36123L74.7474 5.99635C75.4162 6.09353 75.6832 6.9154 75.1993 7.38713L72.0365 10.4701C71.8443 10.6574 71.7566 10.9273 71.802 11.1918L72.5486 15.545C72.6629 16.2111 71.9637 16.719 71.3656 16.4045L67.4562 14.3492C67.2186 14.2243 66.9348 14.2243 66.6973 14.3492L62.7879 16.4045C62.1897 16.719 61.4906 16.2111 61.6048 15.545L62.3515 11.1918C62.3968 10.9273 62.3091 10.6574 62.117 10.4701L58.9542 7.38713C58.4702 6.9154 58.7373 6.09353 59.4061 5.99635L63.7769 5.36123C64.0425 5.32263 64.2721 5.15583 64.3908 4.91518L66.3456 0.954519ZM85.9146 0.954519C86.2137 0.348494 87.0778 0.348493 87.3769 0.954518L89.3316 4.91518C89.4504 5.15583 89.68 5.32263 89.9455 5.36123L94.3164 5.99635C94.9852 6.09353 95.2522 6.9154 94.7683 7.38713L91.6055 10.4701C91.4133 10.6574 91.3257 10.9273 91.371 11.1918L92.1176 15.545C92.2319 16.2111 91.5328 16.719 90.9346 16.4045L87.0252 14.3492C86.7876 14.2243 86.5039 14.2243 86.2663 14.3492L82.3569 16.4045C81.7587 16.719 81.0596 16.2111 81.1738 15.545L81.9205 11.1918C81.9658 10.9273 81.8781 10.6574 81.686 10.4701L78.5232 7.38713C78.0392 6.9154 78.3063 6.09353 78.9751 5.99635L83.3459 5.36123C83.6115 5.32263 83.8411 5.15583 83.9599 4.91518L85.9146 0.954519Z" fill="#FFC700"/>
<path d="M7.6385 0.954519C7.93759 0.348494 8.80176 0.348493 9.10085 0.954518L11.0556 4.91518C11.1743 5.15583 11.4039 5.32263 11.6695 5.36123L16.0403 5.99635C16.7091 6.09353 16.9762 6.9154 16.4922 7.38713L13.3294 10.4701C13.1373 10.6574 13.0496 10.9273 13.0949 11.1918L13.8416 15.545C13.9558 16.2111 13.2567 16.719 12.6585 16.4045L8.7491 14.3492C8.51157 14.2243 8.22779 14.2243 7.99025 14.3492L4.08084 16.4045C3.48266 16.719 2.78353 16.2111 2.89777 15.545L3.6444 11.1918C3.68977 10.9273 3.60207 10.6574 3.4099 10.4701L0.247125 7.38713C-0.236814 6.9154 0.0302287 6.09353 0.699016 5.99635L5.06987 5.36123C5.33544 5.32263 5.56502 5.15583 5.68379 4.91518L7.6385 0.954519ZM27.2075 0.954519C27.5066 0.348494 28.3708 0.348493 28.6699 0.954518L30.6246 4.91518C30.7433 5.15583 30.9729 5.32263 31.2385 5.36123L35.6093 5.99635C36.2781 6.09353 36.5452 6.9154 36.0612 7.38713L32.8985 10.4701C32.7063 10.6574 32.6186 10.9273 32.664 11.1918L33.4106 15.545C33.5248 16.2111 32.8257 16.719 32.2275 16.4045L28.3181 14.3492C28.0806 14.2243 27.7968 14.2243 27.5593 14.3492L23.6499 16.4045C23.0517 16.719 22.3525 16.2111 22.4668 15.545L23.2134 11.1918C23.2588 10.9273 23.1711 10.6574 22.9789 10.4701L19.8161 7.38713C19.3322 6.9154 19.5992 6.09353 20.268 5.99635L24.6389 5.36123C24.9045 5.32263 25.134 5.15583 25.2528 4.91518L27.2075 0.954519ZM46.7765 0.954519C47.0756 0.348494 47.9398 0.348493 48.2389 0.954518L50.1936 4.91518C50.3124 5.15583 50.5419 5.32263 50.8075 5.36123L55.1784 5.99635C55.8471 6.09353 56.1142 6.9154 55.6303 7.38713L52.4675 10.4701C52.2753 10.6574 52.1876 10.9273 52.233 11.1918L52.9796 15.545C53.0939 16.2111 52.3947 16.719 51.7965 16.4045L47.8871 14.3492C47.6496 14.2243 47.3658 14.2243 47.1283 14.3492L43.2189 16.4045C42.6207 16.719 41.9216 16.2111 42.0358 15.545L42.7824 11.1918C42.8278 10.9273 42.7401 10.6574 42.5479 10.4701L39.3852 7.38713C38.9012 6.9154 39.1683 6.09353 39.837 5.99635L44.2079 5.36123C44.4735 5.32263 44.7031 5.15583 44.8218 4.91518L46.7765 0.954519ZM66.3456 0.954519C66.6446 0.348494 67.5088 0.348493 67.8079 0.954518L69.7626 4.91518C69.8814 5.15583 70.111 5.32263 70.3765 5.36123L74.7474 5.99635C75.4162 6.09353 75.6832 6.9154 75.1993 7.38713L72.0365 10.4701C71.8443 10.6574 71.7566 10.9273 71.802 11.1918L72.5486 15.545C72.6629 16.2111 71.9637 16.719 71.3656 16.4045L67.4562 14.3492C67.2186 14.2243 66.9348 14.2243 66.6973 14.3492L62.7879 16.4045C62.1897 16.719 61.4906 16.2111 61.6048 15.545L62.3515 11.1918C62.3968 10.9273 62.3091 10.6574 62.117 10.4701L58.9542 7.38713C58.4702 6.9154 58.7373 6.09353 59.4061 5.99635L63.7769 5.36123C64.0425 5.32263 64.2721 5.15583 64.3908 4.91518L66.3456 0.954519ZM85.9146 0.954519C86.2137 0.348494 87.0778 0.348493 87.3769 0.954518L89.3316 4.91518C89.4504 5.15583 89.68 5.32263 89.9455 5.36123L94.3164 5.99635C94.9852 6.09353 95.2522 6.9154 94.7683 7.38713L91.6055 10.4701C91.4133 10.6574 91.3257 10.9273 91.371 11.1918L92.1176 15.545C92.2319 16.2111 91.5328 16.719 90.9346 16.4045L87.0252 14.3492C86.7876 14.2243 86.5039 14.2243 86.2663 14.3492L82.3569 16.4045C81.7587 16.719 81.0596 16.2111 81.1738 15.545L81.9205 11.1918C81.9658 10.9273 81.8781 10.6574 81.686 10.4701L78.5232 7.38713C78.0392 6.9154 78.3063 6.09353 78.9751 5.99635L83.3459 5.36123C83.6115 5.32263 83.8411 5.15583 83.9599 4.91518L85.9146 0.954519Z" fill="#FFC700"/>
<path d="M7.6385 0.954519C7.93759 0.348494 8.80176 0.348493 9.10085 0.954518L11.0556 4.91518C11.1743 5.15583 11.4039 5.32263 11.6695 5.36123L16.0403 5.99635C16.7091 6.09353 16.9762 6.9154 16.4922 7.38713L13.3294 10.4701C13.1373 10.6574 13.0496 10.9273 13.0949 11.1918L13.8416 15.545C13.9558 16.2111 13.2567 16.719 12.6585 16.4045L8.7491 14.3492C8.51157 14.2243 8.22779 14.2243 7.99025 14.3492L4.08084 16.4045C3.48266 16.719 2.78353 16.2111 2.89777 15.545L3.6444 11.1918C3.68977 10.9273 3.60207 10.6574 3.4099 10.4701L0.247125 7.38713C-0.236814 6.9154 0.0302287 6.09353 0.699016 5.99635L5.06987 5.36123C5.33544 5.32263 5.56502 5.15583 5.68379 4.91518L7.6385 0.954519ZM27.2075 0.954519C27.5066 0.348494 28.3708 0.348493 28.6699 0.954518L30.6246 4.91518C30.7433 5.15583 30.9729 5.32263 31.2385 5.36123L35.6093 5.99635C36.2781 6.09353 36.5452 6.9154 36.0612 7.38713L32.8985 10.4701C32.7063 10.6574 32.6186 10.9273 32.664 11.1918L33.4106 15.545C33.5248 16.2111 32.8257 16.719 32.2275 16.4045L28.3181 14.3492C28.0806 14.2243 27.7968 14.2243 27.5593 14.3492L23.6499 16.4045C23.0517 16.719 22.3525 16.2111 22.4668 15.545L23.2134 11.1918C23.2588 10.9273 23.1711 10.6574 22.9789 10.4701L19.8161 7.38713C19.3322 6.9154 19.5992 6.09353 20.268 5.99635L24.6389 5.36123C24.9045 5.32263 25.134 5.15583 25.2528 4.91518L27.2075 0.954519ZM46.7765 0.954519C47.0756 0.348494 47.9398 0.348493 48.2389 0.954518L50.1936 4.91518C50.3124 5.15583 50.5419 5.32263 50.8075 5.36123L55.1784 5.99635C55.8471 6.09353 56.1142 6.9154 55.6303 7.38713L52.4675 10.4701C52.2753 10.6574 52.1876 10.9273 52.233 11.1918L52.9796 15.545C53.0939 16.2111 52.3947 16.719 51.7965 16.4045L47.8871 14.3492C47.6496 14.2243 47.3658 14.2243 47.1283 14.3492L43.2189 16.4045C42.6207 16.719 41.9216 16.2111 42.0358 15.545L42.7824 11.1918C42.8278 10.9273 42.7401 10.6574 42.5479 10.4701L39.3852 7.38713C38.9012 6.9154 39.1683 6.09353 39.837 5.99635L44.2079 5.36123C44.4735 5.32263 44.7031 5.15583 44.8218 4.91518L46.7765 0.954519ZM66.3456 0.954519C66.6446 0.348494 67.5088 0.348493 67.8079 0.954518L69.7626 4.91518C69.8814 5.15583 70.111 5.32263 70.3765 5.36123L74.7474 5.99635C75.4162 6.09353 75.6832 6.9154 75.1993 7.38713L72.0365 10.4701C71.8443 10.6574 71.7566 10.9273 71.802 11.1918L72.5486 15.545C72.6629 16.2111 71.9637 16.719 71.3656 16.4045L67.4562 14.3492C67.2186 14.2243 66.9348 14.2243 66.6973 14.3492L62.7879 16.4045C62.1897 16.719 61.4906 16.2111 61.6048 15.545L62.3515 11.1918C62.3968 10.9273 62.3091 10.6574 62.117 10.4701L58.9542 7.38713C58.4702 6.9154 58.7373 6.09353 59.4061 5.99635L63.7769 5.36123C64.0425 5.32263 64.2721 5.15583 64.3908 4.91518L66.3456 0.954519ZM85.9146 0.954519C86.2137 0.348494 87.0778 0.348493 87.3769 0.954518L89.3316 4.91518C89.4504 5.15583 89.68 5.32263 89.9455 5.36123L94.3164 5.99635C94.9852 6.09353 95.2522 6.9154 94.7683 7.38713L91.6055 10.4701C91.4133 10.6574 91.3257 10.9273 91.371 11.1918L92.1176 15.545C92.2319 16.2111 91.5328 16.719 90.9346 16.4045L87.0252 14.3492C86.7876 14.2243 86.5039 14.2243 86.2663 14.3492L82.3569 16.4045C81.7587 16.719 81.0596 16.2111 81.1738 15.545L81.9205 11.1918C81.9658 10.9273 81.8781 10.6574 81.686 10.4701L78.5232 7.38713C78.0392 6.9154 78.3063 6.09353 78.9751 5.99635L83.3459 5.36123C83.6115 5.32263 83.8411 5.15583 83.9599 4.91518L85.9146 0.954519Z" fill="#FFC700"/>
</svg>
