<svg width="859" height="112" viewBox="0 0 859 112" fill="none" xmlns="http://www.w3.org/2000/svg">
<path d="M1.34514 12.0106C1.34514 6.12022 6.12022 1.34514 12.0106 1.34514H116.004C121.894 1.34514 126.669 6.12022 126.669 12.0106V99.017C126.669 104.907 121.894 109.682 116.004 109.682H12.0106C6.12022 109.682 1.34514 104.907 1.34514 99.017V12.0106Z" fill="white" stroke="#5A5A5A" stroke-width="2.69038"/>
<rect x="8.00193" y="8.0864" width="112.011" height="94.9275" rx="9.41633" fill="#F0C779" stroke="#5A5A5A" stroke-width="2.69038"/>
<path d="M33.8315 68.8421C33.8854 68.303 33.9124 67.5213 33.9124 66.497L33.9932 46.3617C33.9932 45.7687 34.3976 45.4722 35.2062 45.4722C36.1766 45.4722 36.9583 45.6069 37.5513 45.8765C38.1982 46.146 38.8451 46.4965 39.4921 46.9277C40.139 47.359 40.5972 47.5747 40.8668 47.5747H58.1718C59.0883 47.5747 59.7891 47.3321 60.2743 46.8469C60.7595 46.3078 61.0021 45.607 61.0021 44.7444V25.6603C61.0021 24.3126 61.3794 23.3152 62.1342 22.6683C62.9428 21.9675 63.9402 21.6171 65.1262 21.6171C66.0966 21.6171 66.9052 21.8058 67.5521 22.1831C68.199 22.5605 68.5225 22.9379 68.5225 23.3152C68.5225 23.7465 68.0912 23.9891 67.2287 24.043C66.9052 24.0969 66.6357 24.2856 66.42 24.6091C66.2583 24.9325 66.1774 25.2829 66.1774 25.6603V44.7444C66.1774 45.607 66.42 46.3078 66.9052 46.8469C67.4443 47.3321 68.1451 47.5747 69.0077 47.5747H85.4232C85.9084 47.5747 86.3667 47.4668 86.7979 47.2512C87.2831 46.9817 87.7144 46.6851 88.0918 46.3617C88.4152 46.0921 88.7657 45.8495 89.143 45.6339C89.5204 45.3644 89.8978 45.2296 90.2751 45.2296C91.1377 45.2296 92.0002 45.4991 92.8628 46.0382C93.7793 46.5773 94.534 47.1973 95.127 47.8981C95.7739 48.5989 96.0974 49.165 96.0974 49.5963C96.0974 49.9736 96.0165 50.2702 95.8548 50.4858C95.6931 50.6475 95.4505 50.8632 95.127 51.1327C94.6957 51.4562 94.3453 51.8066 94.0758 52.184C93.8601 52.5613 93.7523 53.1274 93.7523 53.8821V70.702C93.7523 71.7263 93.3749 72.5349 92.6202 73.1279C91.8655 73.7209 91.0299 74.0174 90.1134 74.0174C89.3587 74.0174 88.8735 73.8018 88.6578 73.3705C88.4422 72.8853 88.3344 72.2654 88.3344 71.5106C88.3344 70.5403 88.0918 69.7855 87.6066 69.2464C87.1214 68.6534 86.4206 68.3569 85.5041 68.3569H69.0077C68.1451 68.3569 67.4443 68.5995 66.9052 69.0847C66.42 69.5699 66.1774 70.2707 66.1774 71.1872V92.6163C66.1774 93.5867 65.8001 94.3684 65.0453 94.9614C64.3445 95.6083 63.5898 95.9318 62.7811 95.9318C62.242 95.9318 61.7838 95.7431 61.4064 95.3657C61.0829 95.0423 60.9482 94.5571 61.0021 93.9102V71.1872C61.0021 70.2707 60.7595 69.5699 60.2743 69.0847C59.7891 68.5995 59.0883 68.3569 58.1718 68.3569H41.9989C41.0824 68.3569 40.3816 68.5725 39.8964 69.0038C39.4112 69.3812 39.1686 69.9472 39.1686 70.702C39.1686 71.6724 38.7912 72.481 38.0365 73.1279C37.2817 73.7209 36.4731 74.0174 35.6105 74.0174C35.0714 74.0174 34.6132 73.8557 34.2358 73.5323C33.9124 73.2088 33.7507 72.7506 33.7507 72.1576L33.8315 68.8421ZM39.1686 63.2624C39.1686 64.125 39.4112 64.8258 39.8964 65.3649C40.4355 65.8501 41.1363 66.0927 41.9989 66.0927H58.1718C59.0883 66.0927 59.7891 65.8501 60.2743 65.3649C60.7595 64.8258 61.0021 64.125 61.0021 63.2624V52.5883C61.0021 51.6718 60.7595 50.971 60.2743 50.4858C59.7891 50.0006 59.0883 49.758 58.1718 49.758H41.9989C41.1363 49.758 40.4355 50.0006 39.8964 50.4858C39.4112 50.971 39.1686 51.6718 39.1686 52.5883V63.2624ZM66.1774 63.3433C66.1774 64.2058 66.42 64.9067 66.9052 65.4458C67.4443 65.931 68.1451 66.1736 69.0077 66.1736H85.7467C86.6632 66.1736 87.364 65.931 87.8492 65.4458C88.3344 64.9067 88.577 64.2058 88.577 63.3433V52.5883C88.577 51.6718 88.3344 50.971 87.8492 50.4858C87.364 50.0006 86.6632 49.758 85.7467 49.758H69.0077C68.1451 49.758 67.4443 50.0006 66.9052 50.4858C66.42 50.971 66.1774 51.6718 66.1774 52.5883V63.3433Z" fill="#E43F00"/>
<path d="M147.36 12.0106C147.36 6.12022 152.135 1.34514 158.025 1.34514H262.018C267.909 1.34514 272.684 6.12022 272.684 12.0106V99.017C272.684 104.907 267.909 109.682 262.018 109.682H158.025C152.135 109.682 147.36 104.907 147.36 99.017V12.0106Z" fill="white" stroke="#5A5A5A" stroke-width="2.69038"/>
<rect x="154.017" y="8.0864" width="112.011" height="94.9275" rx="9.41633" fill="#F0C779" stroke="#5A5A5A" stroke-width="2.69038"/>
<path d="M186.639 30.3593C184.482 30.3593 181.868 30.4671 178.795 30.6827L176.854 30.8445C176.315 30.8984 175.884 30.7636 175.56 30.4402C175.291 30.0628 175.156 29.6585 175.156 29.2272C175.156 28.742 175.291 28.3377 175.56 28.0142C175.884 27.6907 176.315 27.556 176.854 27.6099L178.795 27.7716C182.191 27.9873 184.806 28.0951 186.639 28.0951H196.666C197.043 28.0951 197.34 27.9873 197.556 27.7716C197.771 27.556 197.879 27.2595 197.879 26.8821V25.2648C197.879 23.9171 198.256 22.9197 199.011 22.2728C199.82 21.572 200.817 21.2216 202.003 21.2216C202.973 21.2216 203.782 21.4103 204.429 21.7876C205.076 22.165 205.399 22.5424 205.399 22.9197C205.399 23.351 204.968 23.5936 204.106 23.6475C203.782 23.7014 203.513 23.8901 203.297 24.2136C203.135 24.537 203.054 24.8874 203.054 25.2648V26.8821C203.054 27.2595 203.162 27.556 203.378 27.7716C203.593 27.9873 203.89 28.0951 204.267 28.0951H215.912C216.289 28.0951 216.586 27.9873 216.801 27.7716C217.017 27.556 217.125 27.2595 217.125 26.8821V25.2648C217.125 23.9171 217.502 22.9197 218.257 22.2728C219.066 21.572 220.063 21.2216 221.249 21.2216C222.219 21.2216 223.028 21.4103 223.675 21.7876C224.322 22.165 224.645 22.5424 224.645 22.9197C224.645 23.351 224.214 23.5936 223.351 23.6475C223.028 23.7014 222.758 23.8901 222.543 24.2136C222.381 24.537 222.3 24.8874 222.3 25.2648V26.8821C222.3 27.2595 222.408 27.556 222.624 27.7716C222.839 27.9873 223.136 28.0951 223.513 28.0951H231.195C232.273 28.0951 233.163 27.8794 233.864 27.4482C234.619 26.963 235.4 26.316 236.209 25.5074C237.395 24.3214 238.608 23.7284 239.848 23.7284C240.549 23.7284 241.249 23.944 241.95 24.3753C242.759 24.9144 243.514 25.5613 244.215 26.316C244.808 27.0169 245.104 27.6907 245.104 28.3377C245.104 28.9307 244.861 29.4159 244.376 29.7932C243.891 30.1706 243.19 30.3593 242.274 30.3593L223.513 30.4402C223.136 30.4402 222.839 30.548 222.624 30.7636C222.408 30.9792 222.3 31.2758 222.3 31.6531L222.381 33.4321C222.435 34.4025 222.085 35.2112 221.33 35.8581C220.575 36.4511 219.766 36.7476 218.904 36.7476C218.311 36.7476 217.826 36.5859 217.448 36.2624C217.071 35.885 216.909 35.3729 216.963 34.726L217.044 31.6531C217.044 30.8445 216.667 30.4402 215.912 30.4402L204.267 30.3593C203.89 30.3593 203.593 30.4671 203.378 30.6827C203.162 30.8984 203.054 31.1949 203.054 31.5723L203.135 33.4321C203.189 34.4025 202.839 35.2112 202.084 35.8581C201.329 36.4511 200.521 36.7476 199.658 36.7476C199.065 36.7476 198.58 36.5859 198.202 36.2624C197.825 35.885 197.663 35.3729 197.717 34.726L197.798 31.5723C197.798 30.7636 197.421 30.3593 196.666 30.3593H186.639ZM176.369 55.5082C175.83 55.5621 175.399 55.4274 175.075 55.1039C174.806 54.7265 174.671 54.3222 174.671 53.8909C174.671 53.4057 174.806 53.0014 175.075 52.678C175.399 52.3545 175.83 52.2197 176.369 52.2736L178.31 52.4354C181.706 52.651 184.321 52.7588 186.154 52.7588H191.491C192.407 52.7588 193.108 52.5162 193.593 52.031C194.078 51.4919 194.321 50.7911 194.321 49.9286V45.6427C194.321 44.7263 194.078 44.0254 193.593 43.5402C193.108 43.0551 192.407 42.8125 191.491 42.8125C190.197 42.8664 187.582 43.0281 183.647 43.2976C183.108 43.3516 182.676 43.2168 182.353 42.8933C182.083 42.516 181.949 42.1116 181.949 41.6804C181.949 41.1952 182.083 40.7908 182.353 40.4674C182.676 40.1439 183.108 40.0091 183.647 40.0631L185.588 40.2248C188.984 40.4404 191.599 40.5482 193.431 40.5482H225.858C226.936 40.5482 227.826 40.3326 228.527 39.9013C229.281 39.4161 230.063 38.7692 230.872 37.9606C232.058 36.7746 233.271 36.1815 234.511 36.1815C235.212 36.1815 235.912 36.3972 236.613 36.8285C237.422 37.3676 238.177 38.0145 238.877 38.7692C239.47 39.4701 239.767 40.1439 239.767 40.7908C239.767 41.3839 239.524 41.869 239.039 42.2464C238.554 42.6238 237.853 42.8125 236.937 42.8125L229.174 42.8933C228.311 42.8933 227.61 43.1359 227.071 43.6211C226.586 44.1063 226.343 44.8071 226.343 45.7236V49.9286C226.343 50.7911 226.586 51.4919 227.071 52.031C227.61 52.5162 228.311 52.7588 229.174 52.7588H233.298C234.376 52.7588 235.265 52.5432 235.966 52.1119C236.721 51.6267 237.503 50.9798 238.311 50.1712C239.497 48.9851 240.71 48.3921 241.95 48.3921C242.651 48.3921 243.352 48.6078 244.053 49.039C244.861 49.5781 245.616 50.2251 246.317 50.9798C246.91 51.6806 247.207 52.3545 247.207 53.0014C247.207 53.5944 246.964 54.0796 246.479 54.457C245.994 54.8344 245.293 55.023 244.376 55.023L229.174 55.1039C228.311 55.1039 227.61 55.3465 227.071 55.8317C226.586 56.3169 226.343 57.0177 226.343 57.9342V62.5435C226.343 63.0826 226.451 63.5408 226.667 63.9182C226.936 64.2416 227.287 64.4034 227.718 64.4034C227.988 64.4034 228.284 64.3225 228.608 64.1608C229.201 63.8373 229.955 63.2173 230.872 62.3009C232.058 61.1149 233.271 60.5218 234.511 60.5218C235.212 60.5218 235.912 60.7375 236.613 61.1688C237.422 61.7079 238.177 62.3548 238.877 63.1095C239.47 63.8103 239.767 64.4842 239.767 65.1311C239.767 65.7241 239.524 66.2093 239.039 66.5867C238.554 66.9641 237.853 67.1528 236.937 67.1528L215.75 67.2336C214.888 67.2336 214.187 67.4762 213.648 67.9614C213.162 68.4466 212.92 69.1474 212.92 70.0639V72.8942C212.92 73.7567 213.162 74.4575 213.648 74.9966C214.187 75.4818 214.888 75.7244 215.75 75.7244H231.68C232.759 75.7244 233.648 75.5088 234.349 75.0775C235.104 74.5923 235.885 73.9454 236.694 73.1368C237.88 71.9507 239.093 71.3577 240.333 71.3577C241.034 71.3577 241.735 71.5734 242.435 72.0046C243.244 72.5437 243.999 73.1907 244.7 73.9454C245.293 74.6462 245.589 75.3201 245.589 75.967C245.589 76.56 245.347 77.0452 244.861 77.4226C244.376 77.8 243.675 77.9886 242.759 77.9886L215.75 78.0695C214.888 78.0695 214.187 78.3121 213.648 78.7973C213.162 79.2825 212.92 79.9833 212.92 80.8998V91.0079C212.92 91.9782 212.542 92.7599 211.788 93.3529C211.087 93.9999 210.332 94.3233 209.524 94.3233C208.984 94.3233 208.526 94.1346 208.149 93.7573C207.825 93.4338 207.691 92.9486 207.745 92.3017V80.8189C207.745 79.9024 207.502 79.2016 207.017 78.7164C206.532 78.2312 205.831 77.9886 204.914 77.9886H187.771C185.615 77.9886 183 78.0965 179.927 78.3121L177.986 78.4738C177.447 78.5277 177.016 78.393 176.692 78.0695C176.423 77.6921 176.288 77.2878 176.288 76.8565C176.288 76.3713 176.423 75.967 176.692 75.6436C177.016 75.3201 177.447 75.1853 177.986 75.2392L179.927 75.401C183.323 75.6166 185.938 75.7244 187.771 75.7244H204.914C205.831 75.7244 206.532 75.4818 207.017 74.9966C207.502 74.4575 207.745 73.7567 207.745 72.8942V69.983C207.745 69.0666 207.502 68.3657 207.017 67.8805C206.532 67.3954 205.831 67.1528 204.914 67.1528H193.431C191.275 67.1528 188.66 67.2606 185.588 67.4762L183.647 67.6379C183.108 67.6919 182.676 67.5571 182.353 67.2336C182.083 66.8563 181.949 66.4519 181.949 66.0207C181.949 65.5355 182.083 65.1311 182.353 64.8077C182.676 64.4842 183.108 64.3494 183.647 64.4034C187.798 64.6729 190.466 64.8077 191.652 64.8077C192.515 64.8077 193.162 64.5651 193.593 64.0799C194.078 63.5947 194.321 62.9208 194.321 62.0583V57.8533C194.321 56.9368 194.078 56.236 193.593 55.7508C193.108 55.2656 192.407 55.023 191.491 55.023H186.154C183.997 55.023 181.383 55.1309 178.31 55.3465L176.369 55.5082ZM199.496 49.9286C199.496 50.7911 199.739 51.4919 200.224 52.031C200.763 52.5162 201.464 52.7588 202.327 52.7588H204.914C205.831 52.7588 206.532 52.5162 207.017 52.031C207.502 51.4919 207.745 50.7911 207.745 49.9286V45.6427C207.745 44.7263 207.502 44.0254 207.017 43.5402C206.532 43.0551 205.831 42.8125 204.914 42.8125H202.327C201.464 42.8125 200.763 43.0551 200.224 43.5402C199.739 44.0254 199.496 44.7263 199.496 45.6427V49.9286ZM212.92 49.9286C212.92 50.7911 213.162 51.4919 213.648 52.031C214.187 52.5162 214.888 52.7588 215.75 52.7588H218.338C219.254 52.7588 219.955 52.5162 220.44 52.031C220.925 51.4919 221.168 50.7911 221.168 49.9286V45.7236C221.168 44.8071 220.925 44.1063 220.44 43.6211C219.955 43.1359 219.254 42.8933 218.338 42.8933H215.75C214.888 42.8933 214.187 43.1359 213.648 43.6211C213.162 44.1063 212.92 44.8071 212.92 45.7236V49.9286ZM199.496 62.0583C199.496 62.9208 199.739 63.6217 200.224 64.1608C200.763 64.6459 201.464 64.8885 202.327 64.8885H204.914C205.831 64.8885 206.532 64.6459 207.017 64.1608C207.502 63.6217 207.745 62.9208 207.745 62.0583V57.8533C207.745 56.9368 207.502 56.236 207.017 55.7508C206.532 55.2656 205.831 55.023 204.914 55.023H202.327C201.464 55.023 200.763 55.2656 200.224 55.7508C199.739 56.236 199.496 56.9368 199.496 57.8533V62.0583ZM212.92 62.0583C212.92 62.9208 213.162 63.6217 213.648 64.1608C214.187 64.6459 214.888 64.8885 215.75 64.8885H218.338C219.254 64.8885 219.955 64.6459 220.44 64.1608C220.925 63.6217 221.168 62.9208 221.168 62.0583V57.9342C221.168 57.0177 220.925 56.3169 220.44 55.8317C219.955 55.3465 219.254 55.1039 218.338 55.1039H215.75C214.888 55.1039 214.187 55.3465 213.648 55.8317C213.162 56.3169 212.92 57.0177 212.92 57.9342V62.0583Z" fill="#E43F00"/>
<path d="M293.374 12.0106C293.374 6.12022 298.149 1.34514 304.039 1.34514H408.033C413.923 1.34514 418.698 6.12022 418.698 12.0106V99.017C418.698 104.907 413.923 109.682 408.033 109.682H304.039C298.149 109.682 293.374 104.907 293.374 99.017V12.0106Z" fill="white" stroke="#5A5A5A" stroke-width="2.69038"/>
<rect x="300.03" y="8.0864" width="112.011" height="94.9275" rx="9.41633" fill="#F0C779" stroke="#5A5A5A" stroke-width="2.69038"/>
<path d="M358.119 74.1856C356.394 74.7247 353.321 75.8568 348.901 77.5819C348.308 77.7975 347.795 77.7436 347.364 77.4201C346.933 77.0428 346.717 76.5576 346.717 75.9646C346.717 75.1559 347.122 74.6438 347.93 74.4281C347.822 74.4821 349.116 74.1856 351.812 73.5386C353.968 73.0534 355.855 72.5683 357.472 72.0831L375.262 66.3417C376.826 65.8565 377.608 64.8052 377.608 63.1879V24.3728C377.608 23.0251 377.985 22.0278 378.74 21.3809C379.548 20.68 380.546 20.3296 381.732 20.3296C382.702 20.3296 383.511 20.5183 384.158 20.8957C384.805 21.273 385.128 21.6504 385.128 22.0278C385.128 22.4591 384.697 22.7016 383.834 22.7556C383.511 22.8095 383.241 22.9982 383.025 23.3216C382.864 23.6451 382.783 23.9955 382.783 24.3728V61.2472C382.783 61.7863 382.918 62.2445 383.187 62.6219C383.457 62.9453 383.78 63.1071 384.158 63.1071C384.481 63.1071 384.831 62.9453 385.209 62.6219C385.802 62.0828 386.422 61.1663 387.069 59.8725C388.201 57.8778 389.576 56.8805 391.193 56.8805C391.462 56.8805 391.813 56.9344 392.244 57.0422C393.161 57.3657 394.077 57.77 394.993 58.2552C395.479 58.5247 395.856 58.8752 396.126 59.3064C396.395 59.6838 396.53 60.0881 396.53 60.5194C396.53 60.9507 396.341 61.382 395.964 61.8132C395.586 62.1906 395.047 62.4871 394.347 62.7028L385.128 65.6947C383.565 66.1799 382.783 67.2312 382.783 68.8485V91.3289C382.783 92.2993 382.406 93.081 381.651 93.674C380.95 94.3209 380.195 94.6443 379.387 94.6443C378.847 94.6443 378.389 94.4557 378.012 94.0783C377.688 93.7548 377.554 93.2696 377.608 92.6227V71.4361C377.608 70.6275 377.419 70.0075 377.042 69.5763C376.664 69.145 376.152 68.9293 375.505 68.9293C375.02 68.9293 374.643 68.9833 374.373 69.0911L358.119 74.1856ZM319.061 73.5386C322.027 71.544 325.126 68.3363 328.361 63.9157C331.596 59.4412 333.779 55.2901 334.911 51.4626C335.181 50.5461 335.315 49.7913 335.315 49.1983C335.315 48.4975 334.641 48.1471 333.294 48.1471H332.808C331.299 48.1471 329.385 48.228 327.067 48.3897L323.832 48.6323C323.293 48.6862 322.862 48.5514 322.539 48.228C322.269 47.8506 322.134 47.4463 322.134 47.015C322.134 46.5298 322.269 46.1255 322.539 45.802C322.862 45.4786 323.293 45.3438 323.832 45.3977L327.552 45.6403C329.924 45.802 331.676 45.8829 332.808 45.8829H333.294C334.641 45.8829 335.315 45.209 335.315 43.8613L335.396 25.1006C335.396 23.7529 335.774 22.7556 336.528 22.1086C337.337 21.4078 338.334 21.0574 339.52 21.0574C340.491 21.0574 341.299 21.2461 341.946 21.6234C342.593 22.0008 342.917 22.3782 342.917 22.7556C342.917 23.1868 342.485 23.4294 341.623 23.4833C341.299 23.5372 341.03 23.7259 340.814 24.0494C340.652 24.3729 340.571 24.7233 340.571 25.1006V43.6995C340.571 44.2925 340.706 44.7777 340.976 45.1551C341.245 45.4786 341.623 45.6403 342.108 45.6403L342.755 45.4786C343.779 45.1012 344.83 44.3734 345.909 43.2952C347.095 42.1092 348.281 41.5162 349.467 41.5162C350.814 41.5162 352.297 42.3787 353.914 44.1039C354.507 44.8047 354.804 45.4786 354.804 46.1255C354.804 46.7185 354.561 47.2037 354.076 47.581C353.591 47.9584 352.89 48.1471 351.973 48.1471L342.593 48.228C341.245 48.228 340.571 48.8749 340.571 50.1687V50.573C340.571 51.5973 341.057 52.406 342.027 52.999C345.262 54.8858 347.876 56.8805 349.871 58.983C351.866 61.0855 352.863 62.8914 352.863 64.4009C352.863 65.2635 352.593 65.9643 352.054 66.5034C351.515 67.0425 350.895 67.312 350.194 67.312C349.062 67.312 348.254 66.7729 347.768 65.6947C346.367 62.6758 344.803 60.169 343.078 58.1743C342.701 57.6352 342.27 57.3657 341.784 57.3657C341.461 57.3657 341.164 57.5274 340.895 57.8509C340.679 58.1743 340.571 58.6056 340.571 59.1447L340.652 90.8437C340.706 91.8141 340.356 92.5958 339.601 93.1888C338.846 93.8357 338.038 94.1592 337.175 94.1592C336.582 94.1592 336.097 93.9705 335.72 93.5931C335.342 93.2696 335.181 92.7844 335.234 92.1375L335.315 65.2904C335.315 64.1583 335.046 63.5923 334.507 63.5923C334.129 63.5923 333.644 63.9427 333.051 64.6435C331.218 67.1773 329.035 69.5493 326.501 71.7596C323.967 73.916 322.027 75.3177 320.679 75.9646C320.247 76.1263 319.897 76.2072 319.628 76.2072C319.196 76.2072 318.846 76.0994 318.576 75.8837C318.361 75.6142 318.253 75.2907 318.253 74.9133C318.253 74.3742 318.522 73.916 319.061 73.5386ZM342.836 39.0094C343.321 37.8234 343.725 36.6913 344.049 35.6131C344.426 34.5349 344.83 33.1332 345.262 31.4081C345.531 30.3299 345.989 29.5212 346.636 28.9821C347.337 28.443 348.119 28.1735 348.981 28.1735C349.79 28.1735 350.545 28.443 351.246 28.9821C352 29.4673 352.566 30.1412 352.944 31.0038C353.106 31.3811 353.186 31.7315 353.186 32.055C353.186 32.5941 352.998 32.8637 352.62 32.8637C352.459 32.8637 352.243 32.7828 351.973 32.6211C351.704 32.4593 351.461 32.4593 351.246 32.6211C351.03 32.7828 350.76 33.1062 350.437 33.5914C350.114 34.0766 349.79 34.5349 349.467 34.9661C348.658 35.9904 347.175 37.6886 345.019 40.0606C344.534 40.5997 344.049 40.8693 343.563 40.8693C343.294 40.8693 343.078 40.7884 342.917 40.6267C342.755 40.411 342.674 40.1415 342.674 39.818C342.674 39.4946 342.728 39.225 342.836 39.0094ZM325.207 30.1143C325.045 29.8447 324.965 29.6021 324.965 29.3865C324.965 29.1169 325.045 28.9013 325.207 28.7395C325.423 28.5778 325.692 28.497 326.016 28.497C326.178 28.497 326.42 28.5509 326.744 28.6587C328.253 29.3056 329.709 30.5725 331.11 32.4593C332.566 34.3462 333.294 36.2869 333.294 38.2816C333.294 39.1981 333.024 39.9258 332.485 40.4649C331.946 40.9501 331.299 41.1927 330.544 41.1927C329.951 41.1927 329.412 41.031 328.927 40.7075C328.442 40.3841 328.091 39.8989 327.876 39.252C327.714 38.7129 327.337 37.2573 326.744 34.8853C326.582 33.9688 326.366 33.1062 326.097 32.2976C325.881 31.435 325.585 30.7073 325.207 30.1143ZM360.222 30.6803C359.79 30.4108 359.575 30.0334 359.575 29.5482C359.575 29.2247 359.709 28.9821 359.979 28.8204C360.249 28.6587 360.626 28.6048 361.111 28.6587C363.753 29.09 366.448 30.0603 369.198 31.5698C372.001 33.0793 373.645 34.8314 374.13 36.826C374.346 37.6347 374.13 38.3894 373.483 39.0902C372.837 39.7911 372.055 40.1415 371.138 40.1415C370.276 40.1415 369.494 39.7911 368.793 39.0902C368.254 38.5511 367.499 37.6886 366.529 36.5026C365.343 35.1009 364.292 33.9688 363.375 33.1062C362.459 32.1898 361.408 31.3811 360.222 30.6803ZM357.957 47.9854C357.526 47.7158 357.31 47.3115 357.31 46.7724C357.31 46.4489 357.418 46.2063 357.634 46.0446C357.904 45.8829 358.281 45.829 358.766 45.8829C360.329 46.1524 362.135 46.7454 364.184 47.6619C366.233 48.5245 368.066 49.6027 369.683 50.8965C371.3 52.1903 372.27 53.5111 372.594 54.8589C372.81 55.6675 372.567 56.4492 371.866 57.2039C371.219 57.9048 370.438 58.2552 369.521 58.2552C368.712 58.2552 367.958 57.9048 367.257 57.2039C366.772 56.7188 365.99 55.8292 364.912 54.5354C363.51 52.9181 362.27 51.5973 361.192 50.573C360.168 49.5488 359.09 48.6862 357.957 47.9854Z" fill="#E43F00"/>
<path d="M439.389 12.0106C439.389 6.12022 444.164 1.34514 450.054 1.34514H554.047C559.938 1.34514 564.713 6.12022 564.713 12.0106V99.017C564.713 104.907 559.938 109.682 554.047 109.682H450.054C444.164 109.682 439.389 104.907 439.389 99.017V12.0106Z" fill="white" stroke="#5A5A5A" stroke-width="2.69038"/>
<rect x="446.045" y="8.0864" width="112.011" height="94.9275" rx="9.41633" fill="#F0C779" stroke="#5A5A5A" stroke-width="2.69038"/>
<path d="M494.718 92.2184C494.179 92.2723 493.748 92.1106 493.424 91.7332C493.155 91.4097 493.02 91.0324 493.02 90.6011C493.02 90.1159 493.155 89.7116 493.424 89.3881C493.748 89.0647 494.179 88.9299 494.718 88.9838L496.659 89.1455C500.055 89.3612 502.67 89.469 504.503 89.469H513.964C515.312 89.469 515.986 88.7951 515.986 87.4474V73.5386C515.986 72.1909 515.285 71.517 513.883 71.517C510.649 71.517 507.01 71.6787 502.967 72.0022C502.427 72.0561 501.996 71.9213 501.673 71.5979C501.403 71.2205 501.268 70.8162 501.268 70.3849C501.268 69.8997 501.403 69.4954 501.673 69.1719C501.996 68.8485 502.427 68.7137 502.967 68.7676L505.473 68.9293C508.169 69.0911 510.999 69.1989 513.964 69.2528C515.312 69.2528 515.986 68.5789 515.986 67.2312V55.6675C515.986 54.3198 515.312 53.6459 513.964 53.6459H507.091C506.174 53.6459 505.473 53.8615 504.988 54.2928C504.503 54.6702 504.26 55.2362 504.26 55.991C504.26 56.9614 503.883 57.77 503.128 58.4169C502.373 59.0099 501.565 59.3064 500.702 59.3064C500.163 59.3064 499.705 59.1447 499.328 58.8212C499.004 58.4978 498.842 58.0396 498.842 57.4465L498.923 54.1311C498.977 53.592 499.004 52.8103 499.004 51.786L499.085 22.5938C499.085 22.0008 499.489 21.7043 500.298 21.7043C501.268 21.7043 502.05 21.8391 502.643 22.1086C503.29 22.3782 503.937 22.7286 504.584 23.1599C505.231 23.5912 505.689 23.8068 505.959 23.8068H529.409C529.894 23.8068 530.353 23.699 530.784 23.4833C531.269 23.2138 531.7 22.9173 532.078 22.5938C532.401 22.3243 532.752 22.0817 533.129 21.866C533.506 21.5965 533.884 21.4617 534.261 21.4617C534.854 21.4617 535.609 21.7313 536.525 22.2704C537.496 22.8095 538.331 23.4294 539.032 24.1303C539.733 24.8311 540.083 25.3971 540.083 25.8284C540.083 26.2058 540.003 26.5023 539.841 26.7179C539.679 26.8797 539.437 27.0953 539.113 27.3648C538.682 27.6883 538.331 28.0387 538.062 28.4161C537.846 28.7935 537.738 29.3595 537.738 30.1143V55.991C537.738 57.0153 537.361 57.8239 536.606 58.4169C535.852 59.0099 535.016 59.3064 534.099 59.3064C533.345 59.3064 532.86 59.0908 532.644 58.6595C532.428 58.1743 532.32 57.5544 532.32 56.7996C532.32 55.8292 532.078 55.0745 531.593 54.5354C531.107 53.9424 530.407 53.6459 529.49 53.6459H523.183C521.835 53.6459 521.161 54.3198 521.161 55.6675V67.2312C521.161 67.8781 521.35 68.3902 521.727 68.7676C522.105 69.0911 522.644 69.2258 523.344 69.1719C524.692 69.0641 525.609 68.8485 526.094 68.525C526.633 68.2016 527.361 67.5816 528.277 66.6651C529.463 65.4791 530.649 64.8861 531.835 64.8861C533.183 64.8861 534.665 65.7487 536.283 67.4738C536.876 68.1746 537.172 68.8485 537.172 69.4954C537.172 70.0884 536.93 70.5736 536.445 70.951C535.959 71.3283 535.259 71.517 534.342 71.517L523.183 71.5979C521.835 71.5979 521.161 72.2718 521.161 73.6195V87.4474C521.161 88.7951 521.835 89.469 523.183 89.469H530.865C531.943 89.469 532.833 89.2264 533.533 88.7412C534.288 88.3099 535.07 87.69 535.878 86.8813C537.064 85.6953 538.251 85.1023 539.437 85.1023C540.784 85.1023 542.267 85.9649 543.884 87.69C544.477 88.3908 544.774 89.0647 544.774 89.7116C544.774 90.3046 544.531 90.7898 544.046 91.1672C543.561 91.5445 542.86 91.7332 541.943 91.7332L530.865 91.8141L504.503 91.7332C502.347 91.7332 499.732 91.841 496.659 92.0567L494.718 92.2184ZM468.114 55.6675C467.575 55.7214 467.143 55.5867 466.82 55.2632C466.55 54.8858 466.416 54.4815 466.416 54.0502C466.416 53.565 466.55 53.1607 466.82 52.8373C467.143 52.5138 467.575 52.379 468.114 52.4329L472.157 52.6755C472.427 52.7294 473.667 52.8103 475.877 52.9181C477.225 52.9181 477.898 52.2442 477.898 50.8965V31.8124C477.898 30.4647 477.198 29.7908 475.796 29.7908L471.591 30.0334L468.114 30.276C467.575 30.3299 467.143 30.1951 466.82 29.8717C466.55 29.4943 466.416 29.09 466.416 28.6587C466.416 28.1735 466.55 27.7692 466.82 27.4457C467.143 27.1223 467.575 26.9875 468.114 27.0414L472.4 27.3648C474.556 27.4727 475.85 27.5266 476.281 27.5266H482.993C484.071 27.5266 484.961 27.3109 485.661 26.8797C486.416 26.3945 487.198 25.7476 488.007 24.9389C489.193 23.7529 490.379 23.1599 491.565 23.1599C492.912 23.1599 494.395 24.0224 496.012 25.7476C496.605 26.4484 496.902 27.1223 496.902 27.7692C496.902 28.3622 496.659 28.8474 496.174 29.2247C495.689 29.6021 494.988 29.7908 494.071 29.7908L485.095 29.8717C483.748 29.8717 483.074 30.5455 483.074 31.8933V50.6539C483.074 51.2469 483.209 51.7321 483.478 52.1095C483.748 52.4329 484.098 52.5947 484.529 52.5947C484.691 52.5947 484.934 52.5407 485.257 52.4329C486.012 52.1095 486.928 51.4086 488.007 50.3304C489.193 49.1444 490.379 48.5514 491.565 48.5514C492.912 48.5514 494.395 49.414 496.012 51.1391C496.605 51.8399 496.902 52.5138 496.902 53.1607C496.902 53.7537 496.659 54.2389 496.174 54.6163C495.689 54.9936 494.988 55.1823 494.071 55.1823L485.095 55.2632C483.748 55.2632 483.074 55.9371 483.074 57.2848V74.5899C483.074 75.7759 483.505 76.3689 484.368 76.3689C484.691 76.3689 485.041 76.2611 485.419 76.0454C487.899 74.9133 490.783 73.1882 494.071 70.8701C494.341 70.6545 494.664 70.5466 495.042 70.5466C495.311 70.5466 495.527 70.6545 495.689 70.8701C495.904 71.0857 496.012 71.3283 496.012 71.5979C496.012 71.9752 495.796 72.3796 495.365 72.8109C492.023 75.6142 488.438 78.1479 484.61 80.4121C480.837 82.6224 477.144 84.4015 473.532 85.7492C472.076 86.2883 471.564 86.9622 471.995 87.7708C472.103 87.9326 472.157 88.1482 472.157 88.4178C472.157 88.9569 471.887 89.2264 471.348 89.2264C471.241 89.2264 470.971 89.1725 470.54 89.0647C469.408 88.6334 468.545 88.0404 467.952 87.2856C467.359 86.477 467.063 85.6414 467.063 84.7788C467.063 83.9163 467.359 83.1615 467.952 82.5146C468.599 81.8138 469.515 81.3286 470.701 81.0591C473.235 80.466 475.068 79.9809 476.2 79.6035C477.332 79.28 477.898 78.5253 477.898 77.3393V57.2039C477.898 56.557 477.71 56.0718 477.332 55.7484C476.955 55.371 476.416 55.1823 475.715 55.1823C474.26 55.1823 472.804 55.2632 471.348 55.4249L468.114 55.6675ZM504.26 34.5618C504.26 35.4783 504.503 36.1791 504.988 36.6643C505.473 37.1495 506.147 37.3921 507.01 37.3921H513.964C515.312 37.3921 515.986 36.7182 515.986 35.3705V28.0118C515.986 26.664 515.312 25.9901 513.964 25.9901H507.091C506.228 25.9901 505.527 26.2327 504.988 26.7179C504.503 27.2031 504.26 27.9039 504.26 28.8204V34.5618ZM521.161 35.4513C521.161 36.7991 521.835 37.4729 523.183 37.4729H529.814C530.676 37.4729 531.35 37.2304 531.835 36.7452C532.32 36.26 532.563 35.5591 532.563 34.6427V28.8204C532.563 27.9039 532.32 27.2031 531.835 26.7179C531.35 26.2327 530.649 25.9901 529.733 25.9901H523.183C521.835 25.9901 521.161 26.664 521.161 28.0118V35.4513ZM521.161 49.4409C521.161 50.7887 521.835 51.4626 523.183 51.4626H529.733C530.649 51.4626 531.35 51.22 531.835 50.7348C532.32 50.1957 532.563 49.4948 532.563 48.6323V42.8909C532.563 41.9744 532.347 41.2736 531.916 40.7884C531.485 40.3032 530.892 40.0606 530.137 40.0606H523.183C521.835 40.0606 521.161 40.7345 521.161 42.0822V49.4409ZM504.26 48.5514C504.26 49.414 504.503 50.1148 504.988 50.6539C505.527 51.1391 506.228 51.3817 507.091 51.3817H513.964C515.312 51.3817 515.986 50.7078 515.986 49.3601V42.1631C515.986 40.8154 515.312 40.1415 513.964 40.1415H507.01C506.147 40.1415 505.473 40.3841 504.988 40.8693C504.503 41.3545 504.26 42.0553 504.26 42.9717V48.5514Z" fill="#E43F00"/>
<path d="M585.403 12.0106C585.403 6.12022 590.178 1.34514 596.069 1.34514H700.062C705.952 1.34514 710.727 6.12022 710.727 12.0106V99.017C710.727 104.907 705.952 109.682 700.062 109.682H596.069C590.178 109.682 585.403 104.907 585.403 99.017V12.0106Z" fill="white" stroke="#5A5A5A" stroke-width="2.69038"/>
<rect x="592.06" y="8.0864" width="112.011" height="94.9275" rx="9.41633" fill="#F0C779" stroke="#5A5A5A" stroke-width="2.69038"/>
<path d="M610.301 46.9341C609.762 46.988 609.331 46.8533 609.008 46.5298C608.738 46.1524 608.603 45.7481 608.603 45.3168C608.603 44.8316 608.738 44.4273 609.008 44.1039C609.331 43.7804 609.762 43.6456 610.301 43.6995L614.264 43.9421L618.469 44.1847C619.816 44.1847 620.49 43.5108 620.49 42.1631V36.7452C620.49 35.3974 619.816 34.7235 618.469 34.7235L612.242 35.1279C611.703 35.1818 611.272 35.047 610.948 34.7235C610.679 34.3462 610.544 33.9419 610.544 33.5106C610.544 33.0254 610.679 32.6211 610.948 32.2976C611.272 31.9741 611.703 31.8394 612.242 31.8933L614.102 32.055C616.204 32.2167 617.714 32.2976 618.63 32.2976C619.87 32.2976 620.49 31.6507 620.49 30.3568V24.6963C620.49 23.3486 620.868 22.3512 621.622 21.7043C622.431 21.0035 623.428 20.6531 624.614 20.6531C625.585 20.6531 626.393 20.8418 627.04 21.2191C627.687 21.5965 628.011 21.9739 628.011 22.3512C628.011 22.7825 627.579 23.0251 626.717 23.079C626.393 23.1329 626.124 23.3216 625.908 23.6451C625.747 23.9685 625.666 24.3189 625.666 24.6963V30.3568C625.666 31.7046 626.34 32.3785 627.687 32.3785H628.496C629.844 32.3785 630.518 31.7046 630.518 30.3568V24.6963C630.518 23.3486 630.895 22.3512 631.65 21.7043C632.458 21.0035 633.456 20.6531 634.642 20.6531C635.612 20.6531 636.421 20.8418 637.068 21.2191C637.715 21.5965 638.038 21.9739 638.038 22.3512C638.038 22.7825 637.607 23.0251 636.744 23.079C636.421 23.1329 636.151 23.3216 635.935 23.6451C635.774 23.9685 635.693 24.3189 635.693 24.6963V29.8717C635.693 30.6264 635.855 31.2194 636.178 31.6507C636.555 32.028 636.96 32.082 637.391 31.8124C637.661 31.5968 638.092 31.1924 638.685 30.5994C640.087 29.1978 641.326 28.497 642.405 28.497C643.429 28.497 644.588 29.1978 645.882 30.5994C646.475 31.3003 646.771 31.9741 646.771 32.6211C646.771 33.2141 646.529 33.6993 646.044 34.0766C645.558 34.4001 644.858 34.5888 643.941 34.6427L637.715 34.7235C636.367 34.7235 635.693 35.3974 635.693 36.7452V42.1631C635.693 43.4569 636.313 44.1039 637.553 44.1039C638.361 44.1039 638.927 44.023 639.251 43.8613C639.628 43.6456 639.979 43.3761 640.302 43.0526C640.626 42.7292 640.841 42.5135 640.949 42.4057C642.351 41.004 643.591 40.3032 644.669 40.3032C645.693 40.3032 646.852 41.004 648.146 42.4057C648.739 43.1065 649.036 43.7804 649.036 44.4273C649.036 45.0203 648.793 45.5055 648.308 45.8829C647.823 46.2603 647.122 46.4489 646.205 46.4489L619.277 46.5298C617.337 46.5298 614.345 46.6646 610.301 46.9341ZM640.545 92.5419C644.265 90.7089 647.715 88.2021 650.895 85.0214C654.076 81.7868 656.853 78.0671 659.225 73.8621C659.494 73.323 659.629 72.8378 659.629 72.4065C659.629 71.9752 659.521 71.544 659.305 71.1127C656.826 65.3443 655.289 59.1447 654.696 52.5138C654.588 51.4895 654.346 50.9774 653.968 50.9774C653.645 50.9774 653.267 51.3817 652.836 52.1903C650.626 56.557 647.957 60.4116 644.831 63.754C644.507 64.1314 644.157 64.32 643.779 64.32C643.51 64.32 643.267 64.2392 643.052 64.0775C642.836 63.8618 642.728 63.5923 642.728 63.2688C642.728 62.8914 642.89 62.5141 643.213 62.1367C646.502 57.7161 648.928 52.2442 650.491 45.7212C652.108 39.1442 653.187 32.3785 653.726 25.4241C653.834 24.1303 654.292 23.106 655.1 22.3512C655.963 21.5965 656.96 21.2191 658.092 21.2191C659.602 21.2191 660.95 21.8121 662.136 22.9982C662.459 23.3216 662.621 23.699 662.621 24.1303C662.621 24.4537 662.513 24.7233 662.297 24.9389C662.082 25.1006 661.785 25.1276 661.408 25.0198L661.084 24.9389C660.707 24.9389 660.384 25.1545 660.114 25.5858C659.898 25.9632 659.764 26.3945 659.71 26.8797C659.386 30.3299 658.847 33.861 658.092 37.4729C658.039 37.6347 658.012 37.8503 658.012 38.1199C658.012 39.1981 658.605 39.7372 659.791 39.7372H672.405C673.484 39.7372 674.373 39.5215 675.074 39.0902C675.829 38.6051 676.61 37.9581 677.419 37.1495C678.605 35.9635 679.764 35.3705 680.896 35.3705C682.19 35.3705 683.592 36.233 685.101 37.9581C685.694 38.659 685.991 39.3328 685.991 39.9798C685.991 40.5728 685.748 41.058 685.263 41.4353C684.778 41.8127 684.077 42.0014 683.161 42.0014H675.883C674.104 42.0014 673.133 42.9178 672.972 44.7508C672.325 54.4006 670.276 62.8914 666.826 70.2232C666.61 70.6545 666.502 71.1127 666.502 71.5979C666.502 72.0292 666.664 72.4874 666.988 72.9726C671.624 79.4418 678.12 84.9136 686.476 89.3881C687.123 89.7116 687.446 90.1159 687.446 90.6011C687.446 91.1402 687.015 91.3828 686.153 91.3289L685.182 91.248C683.241 91.248 682.001 91.9488 681.462 93.3505C681.193 94.1052 680.815 94.4826 680.33 94.4826C680.061 94.4826 679.818 94.4017 679.602 94.24C673.133 90.3585 667.904 85.4527 663.915 79.5226C663.537 78.8757 663.079 78.5522 662.54 78.5522C662.055 78.5522 661.597 78.8488 661.165 79.4418C655.936 86.2344 649.413 91.3558 641.596 94.8061C641.165 95.0217 640.707 95.1295 640.221 95.1295C639.844 95.1295 639.52 95.0487 639.251 94.8869C639.035 94.7252 638.927 94.5096 638.927 94.24C638.927 93.647 639.467 93.081 640.545 92.5419ZM625.666 42.1631C625.666 43.5108 626.34 44.1847 627.687 44.1847H628.496C629.844 44.1847 630.518 43.5108 630.518 42.1631V36.7452C630.518 35.3974 629.844 34.7235 628.496 34.7235H627.687C626.34 34.7235 625.666 35.3974 625.666 36.7452V42.1631ZM659.225 42.0822C658.578 42.0822 658.065 42.2709 657.688 42.6483C657.311 42.9717 657.149 43.4839 657.203 44.1847C657.796 51.7321 659.359 58.39 661.893 64.1583C662.163 64.6435 662.459 64.8861 662.783 64.8861C663.16 64.8861 663.43 64.6166 663.591 64.0775C665.694 58.1474 666.961 51.786 667.392 44.9934C667.446 44.0769 667.203 43.3761 666.664 42.8909C666.179 42.3518 665.478 42.0822 664.562 42.0822H659.225ZM621.137 91.0054C621.137 91.9758 620.76 92.7575 620.005 93.3505C619.304 93.9974 618.55 94.3209 617.741 94.3209C617.202 94.3209 616.744 94.1322 616.366 93.7548C616.043 93.4314 615.908 92.9462 615.962 92.2993V49.8453C615.962 49.2522 616.366 48.9557 617.175 48.9557C618.145 48.9557 618.927 49.0905 619.52 49.3601C620.167 49.6296 620.814 49.98 621.461 50.4113C622.108 50.8426 622.566 51.0582 622.835 51.0582H631.488C631.973 51.0582 632.431 50.9504 632.863 50.7348C633.348 50.4652 633.779 50.1957 634.156 49.9261C634.534 49.6027 634.776 49.387 634.884 49.2792C635.316 48.9018 635.801 48.7131 636.34 48.7131C636.987 48.7131 637.715 48.9557 638.523 49.4409C639.655 50.0878 640.545 50.7887 641.192 51.5434C641.839 52.2982 642.162 52.8103 642.162 53.0798C642.162 53.4572 642.081 53.7537 641.919 53.9694C641.758 54.1311 641.515 54.3467 641.192 54.6163C640.76 54.9397 640.41 55.2902 640.14 55.6675C639.925 56.0449 639.817 56.6109 639.817 57.3657V88.1752C639.817 89.4151 639.467 90.4663 638.766 91.3289C638.119 92.1914 637.283 92.7844 636.259 93.1079C635.774 93.2696 635.342 93.3505 634.965 93.3505C634.103 93.3505 633.348 92.8384 632.701 91.8141C632.054 90.7359 631.057 89.9003 629.709 89.3073C628.415 88.7143 626.447 88.0673 623.806 87.3665C623.267 87.2048 622.997 86.8813 622.997 86.3961C622.997 86.0727 623.105 85.8031 623.321 85.5875C623.59 85.3718 623.887 85.291 624.21 85.3449C625.18 85.4527 625.8 85.5066 626.07 85.5066C627.795 85.7223 629.385 85.8301 630.841 85.8301C631.811 85.8301 632.674 85.5066 633.429 84.8597C634.237 84.1589 634.642 83.0807 634.642 81.6251V77.2584C634.642 76.3419 634.399 75.6411 633.914 75.1559C633.429 74.6707 632.755 74.4012 631.892 74.3473C631.353 74.2934 630.652 74.2664 629.79 74.2664C628.55 74.2664 627.633 74.2934 627.04 74.3473L623.887 74.4281C623.024 74.4281 622.35 74.6707 621.865 75.1559C621.38 75.6411 621.137 76.3419 621.137 77.2584V91.0054ZM621.137 58.2552C621.137 59.1717 621.38 59.8725 621.865 60.3577C622.35 60.8429 623.024 61.1124 623.887 61.1663C624.587 61.2202 625.504 61.2472 626.636 61.2472L631.892 61.1663C632.755 61.1663 633.429 60.9237 633.914 60.4385C634.399 59.9534 634.642 59.2525 634.642 58.3361V56.0718C634.642 55.1554 634.399 54.4545 633.914 53.9694C633.429 53.4842 632.728 53.2416 631.811 53.2416H623.967C623.105 53.2416 622.404 53.4842 621.865 53.9694C621.38 54.4545 621.137 55.1554 621.137 56.0718V58.2552ZM623.887 63.8349C623.024 63.8349 622.35 64.0775 621.865 64.5626C621.38 65.0478 621.137 65.7487 621.137 66.6651V68.8485C621.137 69.7649 621.38 70.4658 621.865 70.951C622.35 71.4361 623.024 71.7057 623.887 71.7596C624.587 71.8135 625.504 71.8405 626.636 71.8405L631.892 71.7596C632.755 71.7596 633.429 71.517 633.914 71.0318C634.399 70.5466 634.642 69.8458 634.642 68.9293V66.5843C634.642 64.7513 633.833 63.8079 632.216 63.754C631.677 63.7001 630.949 63.6731 630.032 63.6731C628.792 63.6731 627.876 63.7001 627.283 63.754L623.887 63.8349Z" fill="#E43F00"/>
<path d="M731.417 12.0106C731.417 6.12022 736.192 1.34514 742.083 1.34514H846.076C851.966 1.34514 856.742 6.12022 856.742 12.0106V99.017C856.742 104.907 851.966 109.682 846.076 109.682H742.083C736.192 109.682 731.417 104.907 731.417 99.017V12.0106Z" fill="white" stroke="#5A5A5A" stroke-width="2.69038"/>
<rect x="738.074" y="8.08689" width="112.011" height="94.9275" rx="9.41633" fill="#F0C779" stroke="#5A5A5A" stroke-width="2.69038"/>
<path d="M758.623 40.3846C760.995 38.2821 763.017 35.5596 764.688 32.2172C766.413 28.8209 767.707 25.5324 768.57 22.3517C768.785 21.4353 769.351 20.7075 770.268 20.1684C771.184 19.5754 772.209 19.2789 773.341 19.2789C774.958 19.2789 776.333 19.8449 777.465 20.977C777.734 21.2466 777.869 21.5431 777.869 21.8665C777.869 22.1361 777.761 22.3517 777.546 22.5134C777.33 22.6752 777.06 22.7021 776.737 22.5943C776.09 22.4326 775.551 22.5674 775.12 22.9986C774.688 23.4299 774.257 24.1038 773.826 25.0203C773.61 25.6133 773.233 26.4489 772.694 27.5271C772.532 27.9044 772.451 28.2548 772.451 28.5783C772.451 29.4409 773.017 29.8721 774.149 29.8721H779.729C780.807 29.8721 781.697 29.6565 782.398 29.2252C783.152 28.74 783.934 28.0931 784.743 27.2845C785.929 26.0985 787.142 25.5054 788.382 25.5054C789.082 25.5054 789.783 25.7211 790.484 26.1524C791.293 26.6915 792.047 27.3384 792.748 28.0931C793.341 28.7939 793.638 29.4678 793.638 30.1147C793.638 30.7077 793.395 31.1929 792.91 31.5703C792.425 31.9477 791.724 32.1364 790.808 32.1364L781.912 32.2172C780.888 32.2172 780.376 32.4598 780.376 32.945C780.376 33.3224 780.672 33.7537 781.265 34.2388C783.476 36.0718 784.581 37.8238 784.581 39.4951C784.581 40.2498 784.338 40.8698 783.853 41.3549C783.368 41.7862 782.802 42.0019 782.155 42.0019C781.077 42.0019 780.187 41.4628 779.486 40.3846C778.3 38.3899 777.276 36.8535 776.414 35.7753C775.551 34.6432 774.527 33.6728 773.341 32.8641C772.64 32.4329 771.885 32.2172 771.076 32.2172C770.376 32.2172 769.702 32.6485 769.055 33.5111C766.467 37.0152 763.475 39.8185 760.079 41.921C759.54 42.1905 759.109 42.3253 758.785 42.3253C758.192 42.3253 757.896 42.0827 757.896 41.5975C757.896 41.2202 758.138 40.8158 758.623 40.3846ZM787.33 39.5759C789.81 37.3117 792.02 34.5623 793.961 31.3277C795.956 28.0392 797.304 25.0472 798.004 22.3517C798.274 21.4353 798.84 20.7075 799.703 20.1684C800.619 19.5754 801.643 19.2789 802.775 19.2789C804.393 19.2789 805.767 19.8449 806.9 20.977C807.169 21.2466 807.304 21.5431 807.304 21.8665C807.304 22.1361 807.196 22.3517 806.98 22.5134C806.765 22.6752 806.495 22.7021 806.172 22.5943C805.525 22.4326 804.986 22.5674 804.555 22.9986C804.123 23.4299 803.692 24.1038 803.261 25.0203C802.883 25.9906 802.533 26.8262 802.209 27.5271C802.048 27.9044 801.967 28.2548 801.967 28.5783C801.967 29.4409 802.533 29.8721 803.665 29.8721H815.633C816.711 29.8721 817.601 29.6565 818.302 29.2252C819.056 28.74 819.838 28.0931 820.647 27.2845C821.833 26.0985 823.046 25.5054 824.286 25.5054C824.986 25.5054 825.687 25.7211 826.388 26.1524C827.197 26.6915 827.951 27.3384 828.652 28.0931C829.245 28.7939 829.542 29.4678 829.542 30.1147C829.542 30.7077 829.299 31.1929 828.814 31.5703C828.329 31.9477 827.628 32.1364 826.711 32.1364L813.854 32.2172C812.83 32.2172 812.318 32.4598 812.318 32.945C812.318 33.3224 812.614 33.7537 813.207 34.2388C815.417 36.0718 816.523 37.8238 816.523 39.4951C816.523 40.1959 816.253 40.7889 815.714 41.2741C815.229 41.7593 814.663 42.0019 814.016 42.0019C812.991 42.0019 812.129 41.4628 811.428 40.3846C810.242 38.3899 809.218 36.8535 808.355 35.7753C807.493 34.6432 806.468 33.6728 805.282 32.8641C804.581 32.4329 803.773 32.2172 802.856 32.2172H800.835C799.81 32.2172 798.975 32.6215 798.328 33.4302C795.794 36.3413 792.587 38.902 788.705 41.1123C788.166 41.3819 787.735 41.5167 787.411 41.5167C786.818 41.5167 786.522 41.301 786.522 40.8698C786.522 40.4924 786.791 40.0611 787.33 39.5759ZM757.572 90.1164C763.448 88.553 769.486 85.8575 775.686 82.0299C781.939 78.2023 787.061 73.4583 791.05 67.7977C791.751 66.7195 792.101 65.5335 792.101 64.2397V60.6008C792.101 59.6843 791.859 58.9835 791.374 58.4983C790.888 58.0131 790.188 57.7705 789.271 57.7705H781.508C780.645 57.7705 779.945 58.0131 779.406 58.4983C778.92 58.9835 778.678 59.6843 778.678 60.6008V72.0027C778.678 72.9731 778.3 73.7817 777.546 74.4286C776.845 75.0216 776.09 75.3181 775.281 75.3181C774.742 75.3181 774.284 75.1564 773.907 74.833C773.583 74.4556 773.449 73.9434 773.502 73.2965V54.3742C773.502 53.7812 773.907 53.4847 774.715 53.4847C775.794 53.4847 776.764 53.9159 777.627 54.7785C778.112 55.2637 778.624 55.5063 779.163 55.5063H789.271C790.188 55.5063 790.888 55.2637 791.374 54.7785C791.859 54.2394 792.101 53.5386 792.101 52.676V50.7353C792.101 49.3875 791.427 48.7136 790.08 48.7136H773.341C771.4 48.7136 768.408 48.8754 764.365 49.1988C763.826 49.2527 763.394 49.118 763.071 48.7945C762.801 48.4171 762.667 48.0128 762.667 47.5815C762.667 47.0963 762.801 46.692 763.071 46.3686C763.394 46.0451 763.826 45.9103 764.365 45.9642C768.731 46.2877 771.723 46.4494 773.341 46.4494H790.08C791.427 46.4494 792.101 45.7756 792.101 44.4278V42.7296C792.101 41.3819 792.479 40.3846 793.233 39.7376C794.042 39.0368 795.039 38.6864 796.225 38.6864C797.196 38.6864 798.004 38.8751 798.651 39.2525C799.298 39.6298 799.622 40.0072 799.622 40.3846C799.622 40.8158 799.19 41.0584 798.328 41.1123C798.004 41.1663 797.735 41.3549 797.519 41.6784C797.358 42.0019 797.277 42.3523 797.277 42.7296V44.4278C797.277 45.7756 797.951 46.4494 799.298 46.4494H814.339C815.417 46.4494 816.307 46.2338 817.008 45.8025C817.762 45.3173 818.544 44.6704 819.353 43.8618C820.539 42.6757 821.725 42.0827 822.911 42.0827C824.259 42.0827 825.741 42.9453 827.358 44.6704C827.951 45.3712 828.248 46.0451 828.248 46.692C828.248 47.285 828.005 47.7702 827.52 48.1476C827.035 48.525 826.334 48.7136 825.418 48.7136L799.298 48.7945C797.951 48.7945 797.277 49.4684 797.277 50.8161V52.676C797.277 53.5386 797.519 54.2394 798.004 54.7785C798.544 55.2637 799.244 55.5063 800.107 55.5063H807.466C807.951 55.4524 808.382 55.3176 808.759 55.102C809.191 54.8324 809.649 54.482 810.134 54.0507C810.943 53.2421 811.617 52.8377 812.156 52.8377C813.018 52.7838 813.908 52.9995 814.824 53.4847C815.795 53.9159 816.603 54.482 817.25 55.1828C817.897 55.8297 818.248 56.3688 818.302 56.8001C818.355 57.1775 818.302 57.474 818.14 57.6896C817.978 57.8514 817.709 58.094 817.331 58.4174C816.846 58.8487 816.469 59.253 816.199 59.6304C815.983 59.9538 815.876 60.4929 815.876 61.2477V68.5255C815.876 70.7897 815.202 72.5418 813.854 73.7817C812.506 75.0216 810.943 75.6416 809.164 75.6416C808.625 75.6416 808.274 75.5338 808.113 75.3181C807.951 75.0486 807.843 74.6443 807.789 74.1052C807.735 73.3504 807.573 72.7574 807.304 72.3262C807.034 71.841 806.414 71.4636 805.444 71.194C804.959 71.0323 804.501 70.9245 804.069 70.8706C803.692 70.8167 803.18 70.7089 802.533 70.5471C801.563 70.3315 801.077 69.9002 801.077 69.2533C801.077 68.8759 801.239 68.5794 801.563 68.3638C801.94 68.1481 802.371 68.0673 802.856 68.1212C803.234 68.1751 803.665 68.256 804.15 68.3638C804.635 68.4177 805.282 68.4446 806.091 68.4446C807.493 68.4446 808.598 68.1212 809.406 67.4743C810.269 66.8273 810.7 65.857 810.7 64.5631V60.6008C810.7 59.6843 810.458 58.9835 809.972 58.4983C809.487 58.0131 808.786 57.7705 807.87 57.7705H800.107C799.244 57.7705 798.544 58.0131 798.004 58.4983C797.519 58.9835 797.277 59.6843 797.277 60.6008V66.0996C797.277 67.3934 797.681 68.5525 798.49 69.5767C802.317 73.9434 807.25 77.6093 813.288 80.5744C819.326 83.5394 825.741 85.3723 832.534 86.0732C833.235 86.1271 833.585 86.3966 833.585 86.8818C833.585 87.0974 833.45 87.3131 833.181 87.5287C832.965 87.6905 832.642 87.7713 832.21 87.7713C830.593 87.7713 829.299 88.1756 828.329 88.9843C827.358 89.7929 826.792 90.6016 826.631 91.4102C826.469 92.165 826.038 92.5423 825.337 92.5423C825.067 92.5423 824.798 92.5154 824.528 92.4615C824.312 92.4076 824.124 92.3537 823.962 92.2997C819.541 91.2216 815.04 89.2269 810.458 86.3158C805.929 83.3507 802.021 79.9274 798.732 76.0459C798.409 75.6686 798.139 75.4799 797.924 75.4799C797.492 75.4799 797.277 75.8303 797.277 76.5311V91.9763C797.277 92.9467 796.899 93.7284 796.145 94.3214C795.444 94.9683 794.689 95.2917 793.88 95.2917C793.341 95.2917 792.883 95.1031 792.506 94.7257C792.182 94.4022 792.047 93.917 792.101 93.2701V76.3694C792.101 76.0459 792.02 75.8033 791.859 75.6416C791.751 75.426 791.589 75.3181 791.374 75.3181C791.158 75.3181 790.915 75.4529 790.646 75.7225C786.441 79.7657 781.346 83.189 775.362 85.9923C769.378 88.7956 763.637 90.8711 758.138 92.2189C758.03 92.2728 757.842 92.2997 757.572 92.2997C757.249 92.2997 756.979 92.1919 756.763 91.9763C756.548 91.8146 756.44 91.5989 756.44 91.3294C756.44 91.0598 756.521 90.7903 756.683 90.5207C756.898 90.3051 757.195 90.1703 757.572 90.1164Z" fill="#E43F00"/>
</svg>
